<svg width="20" height="21" viewBox="0 0 20 21" fill="none" xmlns="http://www.w3.org/2000/svg">
<path d="M1.25 2.54089C1.25 2.20937 1.3817 1.89143 1.61612 1.65701C1.85054 1.42259 2.16848 1.29089 2.5 1.29089H5C5.33152 1.29089 5.64946 1.42259 5.88388 1.65701C6.1183 1.89143 6.25 2.20937 6.25 2.54089V5.04089C6.25 5.37241 6.1183 5.69036 5.88388 5.92478C5.64946 6.1592 5.33152 6.29089 5 6.29089H2.5C2.16848 6.29089 1.85054 6.1592 1.61612 5.92478C1.3817 5.69036 1.25 5.37241 1.25 5.04089V2.54089ZM7.5 2.54089C7.5 2.20937 7.6317 1.89143 7.86612 1.65701C8.10054 1.42259 8.41848 1.29089 8.75 1.29089H11.25C11.5815 1.29089 11.8995 1.42259 12.1339 1.65701C12.3683 1.89143 12.5 2.20937 12.5 2.54089V5.04089C12.5 5.37241 12.3683 5.69036 12.1339 5.92478C11.8995 6.1592 11.5815 6.29089 11.25 6.29089H8.75C8.41848 6.29089 8.10054 6.1592 7.86612 5.92478C7.6317 5.69036 7.5 5.37241 7.5 5.04089V2.54089ZM13.75 2.54089C13.75 2.20937 13.8817 1.89143 14.1161 1.65701C14.3505 1.42259 14.6685 1.29089 15 1.29089H17.5C17.8315 1.29089 18.1495 1.42259 18.3839 1.65701C18.6183 1.89143 18.75 2.20937 18.75 2.54089V5.04089C18.75 5.37241 18.6183 5.69036 18.3839 5.92478C18.1495 6.1592 17.8315 6.29089 17.5 6.29089H15C14.6685 6.29089 14.3505 6.1592 14.1161 5.92478C13.8817 5.69036 13.75 5.37241 13.75 5.04089V2.54089ZM1.25 8.79089C1.25 8.45937 1.3817 8.14143 1.61612 7.90701C1.85054 7.67259 2.16848 7.54089 2.5 7.54089H5C5.33152 7.54089 5.64946 7.67259 5.88388 7.90701C6.1183 8.14143 6.25 8.45937 6.25 8.79089V11.2909C6.25 11.6224 6.1183 11.9404 5.88388 12.1748C5.64946 12.4092 5.33152 12.5409 5 12.5409H2.5C2.16848 12.5409 1.85054 12.4092 1.61612 12.1748C1.3817 11.9404 1.25 11.6224 1.25 11.2909V8.79089ZM7.5 8.79089C7.5 8.45937 7.6317 8.14143 7.86612 7.90701C8.10054 7.67259 8.41848 7.54089 8.75 7.54089H11.25C11.5815 7.54089 11.8995 7.67259 12.1339 7.90701C12.3683 8.14143 12.5 8.45937 12.5 8.79089V11.2909C12.5 11.6224 12.3683 11.9404 12.1339 12.1748C11.8995 12.4092 11.5815 12.5409 11.25 12.5409H8.75C8.41848 12.5409 8.10054 12.4092 7.86612 12.1748C7.6317 11.9404 7.5 11.6224 7.5 11.2909V8.79089ZM13.75 8.79089C13.75 8.45937 13.8817 8.14143 14.1161 7.90701C14.3505 7.67259 14.6685 7.54089 15 7.54089H17.5C17.8315 7.54089 18.1495 7.67259 18.3839 7.90701C18.6183 8.14143 18.75 8.45937 18.75 8.79089V11.2909C18.75 11.6224 18.6183 11.9404 18.3839 12.1748C18.1495 12.4092 17.8315 12.5409 17.5 12.5409H15C14.6685 12.5409 14.3505 12.4092 14.1161 12.1748C13.8817 11.9404 13.75 11.6224 13.75 11.2909V8.79089ZM1.25 15.0409C1.25 14.7094 1.3817 14.3914 1.61612 14.157C1.85054 13.9226 2.16848 13.7909 2.5 13.7909H5C5.33152 13.7909 5.64946 13.9226 5.88388 14.157C6.1183 14.3914 6.25 14.7094 6.25 15.0409V17.5409C6.25 17.8724 6.1183 18.1904 5.88388 18.4248C5.64946 18.6592 5.33152 18.7909 5 18.7909H2.5C2.16848 18.7909 1.85054 18.6592 1.61612 18.4248C1.3817 18.1904 1.25 17.8724 1.25 17.5409V15.0409ZM7.5 15.0409C7.5 14.7094 7.6317 14.3914 7.86612 14.157C8.10054 13.9226 8.41848 13.7909 8.75 13.7909H11.25C11.5815 13.7909 11.8995 13.9226 12.1339 14.157C12.3683 14.3914 12.5 14.7094 12.5 15.0409V17.5409C12.5 17.8724 12.3683 18.1904 12.1339 18.4248C11.8995 18.6592 11.5815 18.7909 11.25 18.7909H8.75C8.41848 18.7909 8.10054 18.6592 7.86612 18.4248C7.6317 18.1904 7.5 17.8724 7.5 17.5409V15.0409ZM13.75 15.0409C13.75 14.7094 13.8817 14.3914 14.1161 14.157C14.3505 13.9226 14.6685 13.7909 15 13.7909H17.5C17.8315 13.7909 18.1495 13.9226 18.3839 14.157C18.6183 14.3914 18.75 14.7094 18.75 15.0409V17.5409C18.75 17.8724 18.6183 18.1904 18.3839 18.4248C18.1495 18.6592 17.8315 18.7909 17.5 18.7909H15C14.6685 18.7909 14.3505 18.6592 14.1161 18.4248C13.8817 18.1904 13.75 17.8724 13.75 17.5409V15.0409Z" fill="black"/>
</svg>
