<?xml version="1.0" encoding="UTF-8"?>
<svg xmlns="http://www.w3.org/2000/svg" version="1.1" viewBox="0 0 1005 1005">
  <defs>
    <style>
      .cls-1 {
        fill: #888;
        fill-rule: evenodd;
      }
    </style>
  </defs>
  <!-- Generator: Adobe Illustrator 28.7.1, SVG Export Plug-In . SVG Version: 1.2.0 Build 142)  -->
  <g>
    <g id="design">
      <path class="cls-1" d="M857.82,147.18C763.58,52.94,635.77,0,502.5,0S241.42,52.94,147.18,147.18C52.94,241.42,0,369.23,0,502.5s52.94,261.08,147.18,355.32c94.24,94.24,222.05,147.18,355.32,147.18s261.08-52.94,355.32-147.18c94.24-94.24,147.18-222.05,147.18-355.32s-52.94-261.08-147.18-355.32ZM739.38,673.05c18.37,18.37,18.37,47.95,0,66.33-18.37,18.37-47.95,18.37-66.33,0l-170.55-170.55-170.55,170.55c-18.37,18.37-47.96,18.37-66.33,0-18.37-18.37-18.37-47.95,0-66.33l170.55-170.55-170.55-170.55c-18.37-18.37-18.37-47.95,0-66.33,9.18-9.19,21.17-13.78,33.16-13.78s23.98,4.59,33.16,13.78l170.55,170.55,170.55-170.55c18.37-18.37,47.95-18.37,66.33,0,18.37,18.37,18.37,47.95,0,66.33l-170.55,170.55,170.55,170.55Z"/>
    </g>
  </g>
</svg>