<?xml version="1.0" encoding="UTF-8"?>
<svg xmlns="http://www.w3.org/2000/svg" version="1.1" viewBox="0 0 48 24">
  <defs>
    <style>
      .cls-1 {
        fill: #fff;
      }
    </style>
  </defs>
  <!-- Generator: Adobe Illustrator 28.7.1, SVG Export Plug-In . SVG Version: 1.2.0 Build 142)  -->
  <g>
    <g id="Isolation_Mode">
      <g>
        <path class="cls-1" d="M35.51,6.06c-3.23-3.03-7.11-6.06-11.57-6.06h-7.84c-3.47,0-5.81,1.86-8.53,4.01-.82.65-1.66,1.32-2.6,1.99h-2.87c-.41,0-.78.25-.93.64C.12,9.36-.32,13.91.25,16.18c.62,2.46,2.34,3.82,4.85,3.82h.21c.66,2.31,2.77,4,5.29,4s4.63-1.7,5.29-4c2.33,0,4.98,0,7.65,0,2.35,0,4.7.01,6.82.01.33,0,.64,0,.96,0,.66,2.3,2.78,3.98,5.28,3.98s4.63-1.7,5.29-4h5.12c.55,0,1-.45,1-1v-6c0-3.33-7.85-6.19-12.49-6.94ZM10.6,22c-1.93,0-3.5-1.57-3.5-3.5s1.57-3.5,3.5-3.5,3.5,1.57,3.5,3.5-1.57,3.5-3.5,3.5ZM36.6,22c-1.93,0-3.5-1.57-3.5-3.5s1.57-3.5,3.5-3.5,3.5,1.57,3.5,3.5-1.57,3.5-3.5,3.5ZM46,18h-3.93c-.25-2.8-2.61-5-5.47-5s-5.23,2.21-5.48,5.02c-2.32,0-4.94,0-7.58,0-2.6,0-5.18-.01-7.47-.01-.25-2.8-2.61-5-5.47-5s-5.22,2.2-5.47,5h-.03c-1.59,0-2.51-.73-2.91-2.31-.39-1.55-.18-5.14.62-7.69h2.48c.21,0,.41-.06.58-.18,1.09-.77,2.04-1.52,2.95-2.24,2.62-2.08,4.51-3.57,7.29-3.57h7.84c3.08,0,6.19,1.71,10.42,5.73.15.14.34.23.54.26,5.61.82,11.1,3.77,11.1,5.01v5Z"/>
        <path class="cls-1" d="M29.91,8h-15.39l-2.71-2.71-1.41,1.41,3,3c.19.19.44.29.71.29h16c.13,0,.25-.02.37-.07l2-.8-.74-1.86-1.82.73Z"/>
      </g>
    </g>
  </g>
</svg>