<?xml version="1.0" encoding="UTF-8"?>
<svg xmlns="http://www.w3.org/2000/svg" version="1.1" viewBox="0 0 40.51 31.01">
  <defs>
    <style>
      .cls-1 {
        fill: #fff;
      }
    </style>
  </defs>
  <!-- Generator: Adobe Illustrator 28.7.1, SVG Export Plug-In . SVG Version: 1.2.0 Build 142)  -->
  <g>
    <g id="Isolation_Mode">
      <path class="cls-1" d="M38.78,16.43l-.81-2.42c-.09-.27-.23-.53-.41-.78v-6.99c0-.8-.53-1.68-1.25-2.09-9.9-5.53-22.21-5.53-32.12,0-.72.41-1.24,1.29-1.24,2.09v6.99c-.18.25-.32.51-.41.78l-.81,2.42c-1.03.36-1.73,1.33-1.73,2.43v9.94c0,1.22,1.16,2.21,2.58,2.21h1.47c1.31,0,2.58-.99,2.9-2.26l.02-.09c.07-.29.46-.59.76-.59h25.04c.3,0,.69.3.76.6l.02.08c.32,1.27,1.59,2.27,2.9,2.27h1.47c1.42,0,2.58-.99,2.58-2.21v-9.94c0-1.1-.7-2.07-1.73-2.43ZM22.83,10.02c0-.2.17-.37.37-.37h7.37c.2,0,.37.17.37.37v1.84h-8.1v-1.84ZM9.57,10.02c0-.2.17-.37.37-.37h7.37c.2,0,.37.17.37.37v1.84h-8.1v-1.84ZM35.35,11.89c-.13-.02-.25-.03-.37-.03h-1.84v-1.84c0-1.42-1.16-2.58-2.58-2.58h-7.37c-1.42,0-2.58,1.16-2.58,2.58v1.84h-.74v-1.84c0-1.42-1.16-2.58-2.58-2.58h-7.37c-1.42,0-2.58,1.16-2.58,2.58v1.84h-1.84c-.12,0-.24,0-.37.03v-5.62c0-.05.08-.17.12-.2,9.24-5.16,20.71-5.16,29.94,0,.04.03.12.15.13.17v5.64ZM4.11,16.28l.52-1.57c.11-.32.55-.64.89-.64h29.46c.34,0,.78.32.89.64l.52,1.57H4.11ZM4.83,28.12l-.02.09c-.07.29-.46.59-.76.59h-1.47c-.19,0-.31-.06-.37-.1v-9.85c0-.2.17-.37.37-.37h35.35c.2,0,.37.17.37.37v9.85c-.06.04-.18.1-.37.1h-1.47c-.3,0-.69-.3-.76-.6l-.02-.08c-.32-1.27-1.59-2.27-2.9-2.27H7.73c-1.31,0-2.58.99-2.9,2.26Z"/>
    </g>
  </g>
</svg>