<?xml version="1.0" encoding="UTF-8"?>
<svg xmlns="http://www.w3.org/2000/svg" version="1.1" viewBox="0 0 23.76 30.86">
  <defs>
    <style>
      .cls-1 {
        fill: #ec1c24;
      }
    </style>
  </defs>
  <!-- Generator: Adobe Illustrator 28.7.1, SVG Export Plug-In . SVG Version: 1.2.0 Build 142)  -->
  <g>
    <g id="Isolation_Mode">
      <g>
        <path class="cls-1" d="M20.27,3.49C18.13,1.34,15.16,0,11.87,0S5.62,1.34,3.47,3.49C1.33,5.64,0,8.61,0,11.9c0,2.11.55,4.11,1.51,5.83.92,1.57,2.15,2.93,3.63,3.96v3.34c0,.66.54,1.21,1.2,1.21h11.07c.67,0,1.19-.55,1.19-1.21v-3.34c1.5-1.03,2.74-2.39,3.63-3.96.98-1.74,1.53-3.71,1.53-5.83,0-3.29-1.32-6.25-3.49-8.41ZM20.15,16.54h-.02c-.8,1.43-1.96,2.63-3.36,3.47-.35.21-.55.62-.55,1.03h-.02v2.77H7.56v-2.77c0-.5-.28-.91-.69-1.08-1.34-.86-2.48-2.02-3.25-3.42-.78-1.37-1.21-2.96-1.21-4.64,0-2.61,1.07-4.99,2.78-6.7,1.7-1.72,4.09-2.78,6.69-2.78s4.99,1.06,6.7,2.78c1.72,1.71,2.78,4.09,2.78,6.7,0,1.7-.43,3.29-1.2,4.64Z"/>
        <path class="cls-1" d="M17.42,26.89H6.35c-.39,0-.73.33-.73.73s.33.73.73.73h11.07c.38,0,.71-.32.71-.73s-.32-.73-.71-.73Z"/>
        <path class="cls-1" d="M15.08,29.43h-6.41c-.4,0-.73.32-.73.71s.32.73.73.73h6.41c.39,0,.73-.33.73-.73s-.33-.71-.73-.71Z"/>
        <path class="cls-1" d="M15.71,11.27c-.97.97-2.33,1.58-3.84,1.58-.74,0-1.44-.14-2.08-.4-.67-.27-1.26-.68-1.75-1.18-.27-.27-.74-.28-1.01,0-.29.28-.29.74-.02,1.01.63.63,1.4,1.15,2.24,1.5.8.33,1.69.52,2.62.52,1.9,0,3.62-.77,4.87-2.01.28-.27.28-.74,0-1.02-.28-.28-.74-.28-1.03,0Z"/>
      </g>
    </g>
  </g>
</svg>