<?xml version="1.0" encoding="UTF-8"?>
<svg xmlns="http://www.w3.org/2000/svg" version="1.1" viewBox="0 0 124.84 124.84">
  <defs>
    <style>
      .cls-1 {
        fill: #1b75bb;
      }

      .cls-2 {
        fill: #fff;
      }
    </style>
  </defs>
  <!-- Generator: Adobe Illustrator 28.7.1, SVG Export Plug-In . SVG Version: 1.2.0 Build 142)  -->
  <g>
    <g id="Isolation_Mode">
      <circle class="cls-1" cx="62.42" cy="62.42" r="62.42"/>
      <g>
        <path class="cls-2" d="M100.42,39.81l-.96-.96c-1.19-1.07-2.95-1.05-4.02.03-1.08,1.08-.91,2.69.17,3.81l.97.97c7.21,7.22,7.21,18.95,0,26.17l-.97.97c-1.13,1.13-1.13,2.82-.05,3.9,1.08,1.08,2.67,1.08,3.91-.06l.96-.96c9.34-9.34,9.34-24.53,0-33.87Z"/>
        <path class="cls-2" d="M89.15,50.7c3.33,3.33,3.33,8.75,0,12.09l-.95.95c-1.07,1.19-1.07,2.59-.01,3.65,1.06,1.06,2.64.88,3.65-.08l.92-.92c5.32-5.32,5.32-13.97,0-19.29l-.92-.92c-.99-.92-2.68-1.08-3.74-.02-1.06,1.06-.94,2.61.1,3.59l.95.95Z"/>
        <path class="cls-2" d="M29.24,70.59l-.97-.97c-7.22-7.22-7.21-18.95,0-26.17l.97-.97c1.08-1.12,1.25-2.73.17-3.81-1.08-1.08-2.84-1.11-4.03-.03l-.96.96c-9.34,9.34-9.34,24.53,0,33.87l.96.96c1.24,1.14,2.83,1.14,3.91.06,1.08-1.08,1.08-2.77-.05-3.9Z"/>
        <path class="cls-2" d="M32.08,66.18l.92.92c1.01.96,2.59,1.14,3.65.08,1.06-1.06,1.06-2.46-.01-3.65l-.95-.95c-3.33-3.33-3.33-8.75,0-12.08l.95-.95c1.05-.97,1.16-2.53.1-3.59-1.06-1.06-2.75-.9-3.74.02l-.92.92c-5.32,5.32-5.32,13.97,0,19.29Z"/>
        <path class="cls-2" d="M93.37,81.77c-3.71-2.04-13.03-9.08-13.03-28.42,0-.58-.08-1.14-.24-1.66-.65-4.1-2.68-7.73-5.61-10.41h.02s-4-4.29-4-7.89c0-.05-.02-.1-.03-.15h0c0-4.45-3.6-8.05-8.05-8.05s-8.05,3.6-8.05,8.05c0,.12.01.24.02.36-.15,3.48-4.05,7.69-4.05,7.69h.02c-2.94,2.68-4.97,6.32-5.61,10.43-.15.52-.24,1.07-.24,1.64,0,19.34-9.32,26.38-13.03,28.42-.78.43-1.45,1.41-1.45,2.3v3.82c0,.89.72,1.61,1.61,1.61h61.57c.89,0,1.61-.72,1.61-1.61v-3.82c0-.89-.67-1.87-1.45-2.3ZM62.43,30c1.78,0,3.22,1.44,3.22,3.22s-1.44,3.22-3.22,3.22-3.22-1.44-3.22-3.22,1.44-3.22,3.22-3.22Z"/>
        <path class="cls-2" d="M62.43,105.67c6.33,0,11.46-5.05,11.61-11.34h-23.23c.15,6.29,5.29,11.34,11.61,11.34Z"/>
      </g>
    </g>
  </g>
</svg>