<?xml version="1.0" encoding="UTF-8"?>
<svg xmlns="http://www.w3.org/2000/svg" version="1.1" viewBox="0 0 48.25 34.25">
  <defs>
    <style>
      .cls-1 {
        fill: #fff;
      }
    </style>
  </defs>
  <!-- Generator: Adobe Illustrator 28.7.1, SVG Export Plug-In . SVG Version: 1.2.0 Build 142)  -->
  <g>
    <g id="Isolation_Mode">
      <g>
        <path class="cls-1" d="M38.13,11H10.53l-5.69-4.74c-.3-.25-.71-.33-1.08-.2l-3,1c-.32.11-.57.35-.69.66s-.1.66.07.96c.11.19,2.33,4.12,4.19,6.87-.7.52-1.07,1.33-1.07,2.11,0,.7.28,1.35.77,1.83.37.35,1.03.77,2.08.77h12.44l-1.44,3.35-4.95,7.93c-.17.27-.21.6-.13.9s.3.56.58.7l2,1c.16.08.33.12.5.12.27,0,.54-.1.75-.29l10-9s.07-.07.1-.1l3.95-4.61h13.2c2.76,0,5.12-2.27,5.12-4.12,0-3.41-6.49-5.12-10.12-5.12ZM43.13,18h-11.27l.12-.14-1.71-1.46-5.95,6.94-9.38,8.44-.21-.1,4.34-6.95s.06-.1.08-.15l3-7-2.07-.89-.57,1.32H6.13c-.18,0-.61-.03-.61-.34,0-.2.16-.41.61-.41s.82-.24,1.01-.62c.19-.38.15-.84-.11-1.18-1.33-1.75-3.23-4.96-4.24-6.69l1.1-.37,5.52,4.6c.2.17.46.26.72.26h28c3.91,0,7.88,1.84,7.88,2.88,0,.44-1.23,1.88-2.88,1.88Z"/>
        <path class="cls-1" d="M17.17,10.72l1.91-1.19-4.34-6.95.21-.1,9.43,8.49,1.51-1.67L15.88.29c-.34-.31-.84-.38-1.26-.17l-2,1c-.28.14-.49.4-.58.7s-.04.63.13.9l5,8Z"/>
      </g>
    </g>
  </g>
</svg>