<?xml version="1.0" encoding="UTF-8"?>
<svg xmlns="http://www.w3.org/2000/svg" version="1.1" viewBox="0 0 1005 1005">
  <defs>
    <style>
      .cls-1 {
        fill: #fff;
      }

      .cls-1, .cls-2 {
        fill-rule: evenodd;
      }

      .cls-2 {
        fill: #1b75bb;
      }
    </style>
  </defs>
  <!-- Generator: Adobe Illustrator 28.7.1, SVG Export Plug-In . SVG Version: 1.2.0 Build 142)  -->
  <g>
    <g id="design">
      <g id="check">
        <path id="bg-green" class="cls-2" d="M1005,502.5c0,133.27-52.94,261.08-147.18,355.32-94.24,94.24-222.05,147.18-355.32,147.18s-261.08-52.94-355.32-147.18C52.94,763.58,0,635.77,0,502.5S52.94,241.42,147.18,147.18C241.42,52.94,369.23,0,502.5,0s261.08,52.94,355.32,147.18c94.24,94.24,147.18,222.05,147.18,355.32h0ZM1005,502.5"/>
        <path id="check-2" data-name="check" class="cls-1" d="M755.96,275.53c-11.99,0-23.98,4.6-33.16,13.78l-326.9,326.89-113.7-113.7c-18.37-18.37-47.95-18.37-66.33,0-18.37,18.37-18.37,47.95,0,66.33l146.87,146.87c9.76,9.76,22.68,14.34,35.41,13.73,11.23-.54,22.3-5.11,30.92-13.73l360.06-360.06c18.37-18.37,18.37-47.95,0-66.33-9.19-9.19-21.17-13.78-33.16-13.78h0ZM755.96,275.53"/>
      </g>
    </g>
  </g>
</svg>