<?xml version="1.0" encoding="UTF-8"?>
<svg xmlns="http://www.w3.org/2000/svg" version="1.1" viewBox="0 0 75 75">
  <defs>
    <style>
      .cls-1 {
        fill: #c3996b;
      }
    </style>
  </defs>
  <!-- Generator: Adobe Illustrator 28.7.1, SVG Export Plug-In . SVG Version: 1.2.0 Build 142)  -->
  <g>
    <g id="Isolation_Mode">
      <path class="cls-1" d="M37.5,0C16.82,0,0,16.82,0,37.5s16.82,37.5,37.5,37.5,37.5-16.82,37.5-37.5S58.18,0,37.5,0ZM37.5,73c-19.57,0-35.5-15.93-35.5-35.5S17.93,2,37.5,2s35.5,15.93,35.5,35.5-15.93,35.5-35.5,35.5Z"/>
      <path class="cls-1" d="M61.73,38.7l-1.05-3.15c-.12-.35-.3-.69-.53-1.02v-9.09c0-1.04-.68-2.18-1.63-2.72-12.88-7.2-28.89-7.19-41.78,0-.94.53-1.62,1.67-1.62,2.72v9.09c-.24.32-.42.67-.53,1.02l-1.05,3.15c-1.34.47-2.25,1.73-2.25,3.16v12.93c0,1.58,1.5,2.87,3.35,2.87h1.92c1.7,0,3.36-1.29,3.77-2.94l.03-.12c.1-.38.59-.77.99-.77h32.57c.39,0,.89.39.99.78l.03.11c.41,1.65,2.07,2.95,3.77,2.95h1.92c1.85,0,3.35-1.29,3.35-2.87v-12.93c0-1.43-.91-2.69-2.25-3.16ZM40.99,30.36c0-.26.21-.48.48-.48h9.58c.26,0,.48.22.48.48v2.39h-10.54v-2.39ZM23.74,30.36c0-.26.21-.48.48-.48h9.58c.26,0,.48.22.48.48v2.39h-10.54v-2.39ZM57.27,32.79c-.16-.02-.32-.04-.48-.04h-2.39v-2.39c0-1.85-1.5-3.35-3.35-3.35h-9.58c-1.85,0-3.35,1.5-3.35,3.35v2.39h-.96v-2.39c0-1.85-1.5-3.35-3.35-3.35h-9.58c-1.85,0-3.35,1.5-3.35,3.35v2.39h-2.39c-.16,0-.32.01-.48.04v-7.3c.01-.07.11-.22.16-.26,12.02-6.71,26.94-6.71,38.95,0,.05.04.16.19.17.22v7.34ZM16.64,38.51l.68-2.04c.14-.41.72-.84,1.16-.84h38.32c.44,0,1.02.42,1.16.84l.68,2.04H16.64ZM17.57,53.9l-.03.12c-.1.38-.59.77-.99.77h-1.92c-.24,0-.4-.08-.48-.13v-12.81c0-.26.21-.48.48-.48h45.98c.26,0,.48.22.48.48v12.81c-.07.05-.24.13-.48.13h-1.92c-.39,0-.89-.39-.99-.78l-.03-.11c-.41-1.65-2.07-2.95-3.77-2.95H21.35c-1.7,0-3.36,1.29-3.77,2.94Z"/>
    </g>
  </g>
</svg>