<?xml version="1.0" encoding="UTF-8"?>
<svg xmlns="http://www.w3.org/2000/svg" version="1.1" viewBox="0 0 32 28.57">
  <defs>
    <style>
      .cls-1 {
        fill: #fff;
      }
    </style>
  </defs>
  <!-- Generator: Adobe Illustrator 28.7.1, SVG Export Plug-In . SVG Version: 1.2.0 Build 142)  -->
  <g>
    <g id="Isolation_Mode">
      <path class="cls-1" d="M12.94,5.99c.4.4.4,1.04,0,1.44-.39.4-1.04.4-1.43,0l-2.11-2.1c-.4-.4-.4-1.05,0-1.44.39-.39,1.04-.39,1.43,0l2.11,2.1h0ZM10.02,8.53h0c-2.77,0-5.28,1.12-7.09,2.92-1.81,1.82-2.94,4.32-2.94,7.09s1.13,5.29,2.94,7.09c1.81,1.81,4.32,2.94,7.09,2.94h9.08c2.03,0,3.89-.82,5.22-2.16,1.34-1.34,2.16-3.19,2.16-5.24,0-1.58-.49-3.03-1.33-4.23.27-.44.47-.9.63-1.4.24-.72.36-1.5.36-2.28,0-2.04-.82-3.89-2.15-5.22h-.02c-1.33-1.35-3.19-2.18-5.22-2.18-1.34,0-2.62.37-3.72,1.01l-.07.04c-.85.51-1.59,1.19-2.18,2-.87-.26-1.81-.39-2.76-.39h0ZM14.74,9.7h0c.37-.4.79-.75,1.27-1.04l.06-.03c.79-.46,1.71-.73,2.69-.73,1.48,0,2.82.6,3.78,1.57h0c.97.97,1.56,2.3,1.56,3.79,0,.58-.09,1.12-.26,1.65-.04.16-.11.31-.16.46-1.27-.99-2.86-1.58-4.58-1.58h-.26c-.81-1.48-1.98-2.74-3.38-3.65-.23-.15-.46-.3-.72-.44h0ZM28.01,14.27h0c-.56,0-1.03-.46-1.03-1.01s.46-1.03,1.03-1.03h2.98c.56,0,1.01.46,1.01,1.03s-.46,1.01-1.01,1.01h-2.98ZM26.01,7.44h0c-.4.4-1.04.4-1.44,0-.4-.4-.4-1.05,0-1.45l2.11-2.1c.4-.39,1.04-.39,1.44,0,.4.4.4,1.04,0,1.44l-2.11,2.11h0ZM19.77,4.02h0c0,.55-.46,1-1.02,1s-1.01-.45-1.01-1V1.03c0-.56.46-1.03,1.01-1.03s1.02.46,1.02,1.03v2.99h0ZM14.34,11.84h0c1.3.82,2.33,2.02,2.96,3.43.2.43.64.66,1.07.6.11,0,.24-.02.36-.04.09,0,.22-.01.37-.01,1.48,0,2.82.61,3.78,1.58.98.96,1.57,2.31,1.57,3.77s-.59,2.84-1.57,3.8c-.96.96-2.31,1.56-3.78,1.56h-9.08c-2.2,0-4.19-.89-5.64-2.33-1.45-1.45-2.35-3.44-2.35-5.65s.9-4.2,2.35-5.63c1.45-1.46,3.44-2.35,5.64-2.35,1.6,0,3.09.47,4.32,1.28h0Z"/>
    </g>
  </g>
</svg>