<?xml version="1.0" encoding="UTF-8"?>
<svg xmlns="http://www.w3.org/2000/svg" version="1.1" viewBox="0 0 54.15 54.15">
  <defs>
    <style>
      .cls-1 {
        fill: #1b75bb;
      }

      .cls-2 {
        fill: #fff;
      }
    </style>
  </defs>
  <!-- Generator: Adobe Illustrator 28.7.1, SVG Export Plug-In . SVG Version: 1.2.0 Build 142)  -->
  <g>
    <g id="Layer_1">
      <circle class="cls-1" cx="27.07" cy="27.07" r="27.07"/>
      <g>
        <path class="cls-2" d="M30.46,25.26h-3.88v-3.88c0-.38-.29-.66-.66-.66s-.67.28-.67.66v3.88h-3.88c-.36,0-.66.28-.66.66s.3.67.66.67h3.88v3.87c0,.37.29.67.67.67s.66-.3.66-.67v-3.87h3.88c.36,0,.66-.3.66-.67s-.3-.66-.66-.66Z"/>
        <path class="cls-2" d="M40,38.44l-4.8-4.8c.78-.92,1.41-1.96,1.89-3.1.58-1.43.91-2.99.91-4.63s-.32-3.14-.9-4.56v-.06c-.63-1.45-1.5-2.76-2.59-3.87l-.05-.05c-1.11-1.1-2.44-2.01-3.92-2.62h0c-1.43-.6-2.98-.93-4.61-.93-6.7,0-12.1,5.53-12.1,12.1,0,1.62.32,3.16.9,4.56l.02.08c.61,1.48,1.51,2.82,2.63,3.92,1.12,1.1,2.44,2.01,3.92,2.62,1.43.6,2.99.92,4.63.92s3.2-.32,4.62-.92c1.13-.46,2.18-1.1,3.1-1.86l4.8,4.78c.43.43,1.13.43,1.57,0,.43-.43.43-1.13,0-1.57ZM29.69,35.06c-1.15.47-2.43.74-3.77.74s-2.62-.27-3.78-.74c-1.21-.5-2.3-1.24-3.2-2.15-.92-.92-1.66-2.01-2.16-3.21l-.02-.05c-.47-1.15-.72-2.4-.72-3.73,0-5.38,4.41-9.87,9.88-9.87,1.34,0,2.62.28,3.77.74,1.2.51,2.3,1.25,3.21,2.15l.05.06c.88.88,1.61,1.96,2.08,3.14l.03.08c.47,1.13.73,2.38.73,3.7s-.27,2.62-.76,3.78c-.99,2.42-2.93,4.35-5.34,5.36Z"/>
      </g>
    </g>
  </g>
</svg>