<?xml version="1.0" encoding="UTF-8"?>
<svg xmlns="http://www.w3.org/2000/svg" version="1.1" viewBox="0 0 32.02 31.5">
  <defs>
    <style>
      .cls-1 {
        fill: #fff;
      }
    </style>
  </defs>
  <!-- Generator: Adobe Illustrator 28.7.1, SVG Export Plug-In . SVG Version: 1.2.0 Build 142)  -->
  <g>
    <g id="Isolation_Mode">
      <path class="cls-1" d="M29.66,28.38c0,.83-.29,1.61-.77,2.16-.5.59-1.22.95-2,.95s-1.49-.37-2.01-.95c-.48-.56-.76-1.33-.76-2.16v-.1l.59-9.48v-.08c0-.65.24-1.24.59-1.68.12-.11.21-.22.33-.29v-4.89c-.95-.28-1.77-.86-2.4-1.62-.9-1.1-1.46-2.58-1.46-4.22s.56-3.12,1.46-4.2C24.15.7,25.45,0,26.89,0s2.73.7,3.68,1.82l.03.04c.88,1.08,1.42,2.55,1.42,4.16s-.55,3.12-1.45,4.2v.02c-.65.77-1.48,1.34-2.41,1.61v4.9c.12.07.23.18.32.29.38.43.6,1.03.6,1.68v.07l.59,9.55v.04h0ZM15.8,10.95h0v5.81c.12.07.22.18.32.29.38.43.61,1.03.61,1.68l-.02.06.6,9.56v.04c0,.83-.29,1.61-.76,2.16-.51.59-1.24.95-2,.95s-1.51-.37-2.01-.95c-.49-.56-.79-1.33-.79-2.16l.02-.1.59-9.48v-.07h0c0-.66.22-1.25.6-1.69.1-.11.2-.22.32-.29v-5.81h-.49c-.58,0-1.13-.23-1.51-.63-.38-.39-.63-.92-.63-1.52V1.84c0-.42.33-.76.77-.76s.76.34.76.76v6.95c0,.17.07.33.17.44.1.09.24.18.39.18V1.84c0-.42.34-.76.78-.76s.75.34.75.76v7.58h.57V1.84c0-.42.34-.76.77-.76s.76.34.76.76v7.57c.14,0,.28-.09.38-.17h0c.11-.12.2-.28.2-.45V1.84c0-.42.33-.76.75-.76s.77.34.77.76v6.95c0,.59-.24,1.13-.63,1.51h0c-.4.41-.95.64-1.51.64h-.5ZM5.9,17.2h0c.25.34.41.79.41,1.28v10.84c0,.6-.24,1.14-.64,1.53h0s-.02.03-.02.03c-.39.39-.94.62-1.52.62h-1.92c-.6,0-1.15-.23-1.55-.64h0s-.02-.03-.02-.03c-.4-.4-.63-.94-.63-1.52V6.35C0,4.36,2.5.36,2.5.35,2.71,0,3.19-.11,3.54.12c.08.05.14.12.22.21,0,0,3.06,4.02,3.06,7.34v8.46c0,.27-.15.51-.37.65l-.55.43h0ZM1.52,16.28h3.06l.7-.54V7.67c0-1.9-1.28-4.21-2.11-5.5-.67,1.2-1.66,3.14-1.66,4.18v9.94h0ZM29.39,2.79h0c-.65-.77-1.53-1.27-2.5-1.27s-1.85.51-2.5,1.27c-.67.82-1.09,1.97-1.09,3.24s.42,2.42,1.09,3.24c.65.78,1.54,1.26,2.5,1.26s1.85-.48,2.5-1.26c.68-.82,1.1-1.97,1.1-3.24s-.41-2.38-1.06-3.19l-.04-.04h0ZM15.39,29.56h0c.24-.29.4-.7.4-1.17l-.59-9.54v-.13c0-.27-.1-.52-.23-.69-.11-.13-.26-.21-.41-.21h-.03c-.15,0-.31.08-.41.21-.14.16-.24.42-.24.69v.14l-.59,9.52h0c0,.47.15.88.4,1.17.23.26.53.42.87.42.31,0,.61-.16.84-.42h0ZM13.88,18.75h0v.05-.05h0ZM27.74,29.56h0c.25-.29.41-.7.41-1.17l-.59-9.54v-.13c0-.27-.1-.52-.23-.69-.12-.13-.26-.21-.41-.21h-.04c-.14,0-.3.08-.4.21-.16.16-.23.42-.23.69h-.02l.02.04v.11l-.61,9.52h0c0,.47.16.88.41,1.17.22.26.51.42.85.42.31,0,.63-.16.85-.42h0ZM3.77,18.82h-1.23v10.14h1.23v-10.14h0Z"/>
    </g>
  </g>
</svg>