<?xml version="1.0" encoding="UTF-8"?>
<svg xmlns="http://www.w3.org/2000/svg" version="1.1" viewBox="0 0 38.25 41.25">
  <defs>
    <style>
      .cls-1 {
        fill: #fff;
      }
    </style>
  </defs>
  <!-- Generator: Adobe Illustrator 28.7.1, SVG Export Plug-In . SVG Version: 1.2.0 Build 142)  -->
  <g>
    <g id="Isolation_Mode">
      <g>
        <rect class="cls-1" x="8.12" y="28" width="5" height="2.25"/>
        <rect class="cls-1" x="25.12" y="28" width="5" height="2.25"/>
        <path class="cls-1" d="M37.8,10.23l-3.55-2.66v-3.44c0-2.27-1.85-4.12-4.12-4.12H8.12c-2.27,0-4.12,1.85-4.12,4.12v3.44L.45,10.23c-.28.21-.45.55-.45.9v6h2.25v-5.44l1.75-1.31v23.75c0,1.18.51,2.25,1.31,3h-.31v2c0,1.17.95,2.12,2.12,2.12h5c1.17,0,2.12-.95,2.12-2.12v-.88h9.75v.88c0,1.17.95,2.12,2.12,2.12h5c1.17,0,2.12-.95,2.12-2.12v-2h-.31c.8-.75,1.31-1.82,1.31-3V10.37l1.75,1.31v5.44h2.25v-6c0-.35-.17-.69-.45-.9ZM6.25,23v-14.75h11.75v14.75H6.25ZM6.25,25.25h25.75v8.88c0,1.03-.84,1.88-1.88,1.88H8.12c-1.03,0-1.88-.84-1.88-1.88v-8.88ZM20.25,23v-14.75h11.75v14.75h-11.75ZM8.12,2.25h22c1.03,0,1.88.84,1.88,1.88v1.88H6.25v-1.88c0-1.03.84-1.88,1.88-1.88ZM12,39h-4.75v-.85c.28.06.57.1.88.1h3.88v.75ZM31,39h-4.75v-.75h3.88c.3,0,.59-.04.88-.1v.85Z"/>
      </g>
    </g>
  </g>
</svg>