<svg width="20" height="21" viewBox="0 0 20 21" fill="none" xmlns="http://www.w3.org/2000/svg">
<path d="M3.33341 5.87423C4.25387 5.87423 5.00008 5.12802 5.00008 4.20756C5.00008 3.28709 4.25387 2.54089 3.33341 2.54089C2.41294 2.54089 1.66675 3.28709 1.66675 4.20756C1.66675 5.12802 2.41294 5.87423 3.33341 5.87423Z" stroke="black" stroke-width="2" stroke-linejoin="round"/>
<path d="M3.33333 10.8742C3.79357 10.8742 4.16667 10.5011 4.16667 10.0409C4.16667 9.5806 3.79357 9.20752 3.33333 9.20752C2.8731 9.20752 2.5 9.5806 2.5 10.0409C2.5 10.5011 2.8731 10.8742 3.33333 10.8742Z" stroke="black" stroke-width="2" stroke-linejoin="round"/>
<path d="M3.33333 16.7076C3.79357 16.7076 4.16667 16.3345 4.16667 15.8742C4.16667 15.414 3.79357 15.0409 3.33333 15.0409C2.8731 15.0409 2.5 15.414 2.5 15.8742C2.5 16.3345 2.8731 16.7076 3.33333 16.7076Z" stroke="black" stroke-width="2" stroke-linejoin="round"/>
<path d="M8.33325 10.0409H18.3333" stroke="black" stroke-width="2" stroke-linecap="round" stroke-linejoin="round"/>
<path d="M8.33325 15.8743H18.3333" stroke="black" stroke-width="2" stroke-linecap="round" stroke-linejoin="round"/>
<path d="M8.33325 4.20752H18.3333" stroke="black" stroke-width="2" stroke-linecap="round" stroke-linejoin="round"/>
</svg>
