<?xml version="1.0" encoding="UTF-8"?>
<svg xmlns="http://www.w3.org/2000/svg" version="1.1" viewBox="0 0 130.9 130.9">
  <defs>
    <style>
      .cls-1 {
        fill: #1b75bb;
      }
    </style>
  </defs>
  <!-- Generator: Adobe Illustrator 28.7.1, SVG Export Plug-In . SVG Version: 1.2.0 Build 142)  -->
  <g>
    <g id="Layer_1">
      <path class="cls-1" d="M65.45,0C29.36,0,0,29.36,0,65.45s29.36,65.45,65.45,65.45,65.45-29.36,65.45-65.45S101.54,0,65.45,0ZM102.27,58.59c-7.19-.23-13.78-2.29-19.69-6.44-.02.02-.04.03-.05.05v6.05c0,3.74,0,7.48,0,11.22,0,2.71-.01,5.41-.03,8.12,0,1.43.02,2.87-.05,4.3-.17,3.33-.97,6.52-2.38,9.55-1.25,2.68-2.9,5.09-4.99,7.18-3.29,3.31-7.21,5.57-11.73,6.76-1.83.48-3.69.74-5.58.76-.09,0-.18.02-.27.03h-1.91c-.26-.02-.51-.05-.77-.07-2.34-.17-4.6-.69-6.79-1.51-3.19-1.2-6.05-2.95-8.52-5.3-3.67-3.49-6.15-7.68-7.38-12.61-.44-1.77-.64-3.56-.63-5.38,0-.98-.03-1.96.03-2.94.12-1.91.53-3.76,1.13-5.58,1.16-3.54,2.99-6.7,5.53-9.42,3.02-3.24,6.63-5.57,10.84-6.96,2.47-.82,5.01-1.25,7.61-1.28,1.46-.01,2.9.11,4.33.36.13.02.17.07.17.2-.01,2.14,0,4.28-.03,6.42-.01,1.48-.05,2.97-.07,4.45-.02,1.28-.02,2.56-.04,3.84,0,.05,0,.1-.01.17-.35-.09-.69-.19-1.03-.27-2.85-.63-5.61-.43-8.22.95-2.68,1.42-4.51,3.6-5.58,6.43-.43,1.13-.57,2.3-.56,3.49,0,.64.01,1.29.05,1.93.04.74.24,1.45.5,2.14,1.23,3.29,3.46,5.64,6.69,7.02,1.43.61,2.93.84,4.49.76.96-.05,1.92-.12,2.85-.39,3.05-.89,5.38-2.71,6.97-5.46.44-.76.88-1.52,1.06-2.39.08-.37.12-.75.13-1.12.07-2.01.15-4.01.19-6.02.04-2.13.03-4.27.04-6.4,0-2.76,0-5.52,0-8.27,0-8.37,0-16.75,0-25.12,0-3.2.02-6.4.03-9.61,0-1.1.02-2.2.03-3.3,0-.05,0-.09,0-.19h13.25c.03.38.07.81.11,1.23.37,3.51,1.38,6.81,3.31,9.79,1.74,2.7,4.07,4.77,6.9,6.27,2.09,1.11,4.32,1.87,6.63,2.34,1.06.22,2.14.36,3.21.53.05,0,.09.01.15.02v13.67Z"/>
    </g>
  </g>
</svg>