<?xml version="1.0" encoding="UTF-8"?>
<svg xmlns="http://www.w3.org/2000/svg" version="1.1" viewBox="0 0 130.05 130.05">
  <defs>
    <style>
      .cls-1 {
        fill: none;
      }

      .cls-2 {
        fill: #1b75bb;
      }

      .cls-3 {
        fill: #fff;
      }
    </style>
  </defs>
  <!-- Generator: Adobe Illustrator 28.7.1, SVG Export Plug-In . SVG Version: 1.2.0 Build 142)  -->
  <g>
    <g id="Layer_1">
      <path class="cls-3" d="M86.95,38.64c-2.66,0-4.81,2.15-4.81,4.81s2.15,4.81,4.81,4.81,4.81-2.15,4.81-4.81-2.15-4.81-4.81-4.81Z"/>
      <g>
        <path class="cls-1" d="M86.95,38.64c-2.66,0-4.81,2.15-4.81,4.81s2.15,4.81,4.81,4.81,4.81-2.15,4.81-4.81-2.15-4.81-4.81-4.81Z"/>
        <g>
          <path class="cls-1" d="M49.15,31.3h32.54c9.35,0,16.93,7.59,16.93,16.93v32.54c0,9.34-7.59,16.93-16.93,16.93h-32.54c-9.35,0-16.93-7.59-16.93-16.93v-32.54c0-9.34,7.59-16.93,16.93-16.93Z"/>
          <path class="cls-2" d="M65.02,0C29.17,0,0,29.17,0,65.02s29.17,65.02,65.02,65.02,65.02-29.17,65.02-65.02S100.88,0,65.02,0ZM106.34,80.77c0,13.61-11.04,24.65-24.65,24.65h-32.54c-13.62,0-24.65-11.04-24.65-24.65v-32.54c0-13.61,11.04-24.65,24.65-24.65h32.54c13.62,0,24.65,11.04,24.65,24.65v32.54Z"/>
        </g>
        <path class="cls-2" d="M65.56,52.08c-7.14,0-12.95,5.81-12.95,12.95s5.81,12.95,12.95,12.95,12.95-5.81,12.95-12.95-5.81-12.95-12.95-12.95Z"/>
        <path class="cls-2" d="M81.69,31.3h-32.54c-9.35,0-16.93,7.58-16.93,16.93v32.54c0,9.35,7.58,16.93,16.93,16.93h32.54c9.35,0,16.93-7.58,16.93-16.93v-32.54c0-9.35-7.58-16.93-16.93-16.93ZM65.56,85.24c-11.15,0-20.21-9.07-20.21-20.21s9.07-20.21,20.21-20.21,20.21,9.07,20.21,20.21-9.07,20.21-20.21,20.21ZM86.95,48.27c-2.66,0-4.81-2.15-4.81-4.81s2.15-4.81,4.81-4.81,4.81,2.15,4.81,4.81-2.15,4.81-4.81,4.81Z"/>
      </g>
    </g>
  </g>
</svg>