<?xml version="1.0" encoding="UTF-8"?>
<svg xmlns="http://www.w3.org/2000/svg" version="1.1" viewBox="0 0 130.9 130.9">
  <defs>
    <style>
      .cls-1 {
        fill: #1b75bb;
      }
    </style>
  </defs>
  <!-- Generator: Adobe Illustrator 28.7.1, SVG Export Plug-In . SVG Version: 1.2.0 Build 142)  -->
  <g>
    <g id="Layer_1">
      <g>
        <path class="cls-1" d="M68.54,29.75c-17.98,0-32.61,14.63-32.61,32.61,0,6.89,2.13,13.47,6.15,19.05.72,1,.86,2.32.34,3.45l-3.76,8.29,10.81-2.96c.3-.08.61-.12.91-.12.61,0,1.21.16,1.74.47,4.97,2.91,10.65,4.44,16.42,4.44,17.98,0,32.61-14.63,32.61-32.62s-14.63-32.61-32.61-32.61ZM87.93,75c-1.21,2.95-4.23,4.84-7.28,5.42-2.92.55-5.33-.38-8.03-1.27-2.41-.8-4.74-1.96-6.9-3.28-4.33-2.65-8.06-6.19-11.07-10.27-.92-1.25-1.77-2.54-2.55-3.88-1.04-1.77-1.96-3.64-2.44-5.63-.2-.83-.31-1.69-.32-2.55-.03-3.03,1.12-6.08,3.51-8.03,1.39-1.13,3.44-1.62,4.99-.74,1.69.96,2.57,3.37,3.35,5.06.61,1.32,1.31,3.06,1.06,4.54-.25,1.49-1.43,2.74-2.36,3.84-.63.74-.73,1.38-.2,2.18,3.1,5.16,7.4,8.91,13.02,11.15.76.31,1.36.21,1.85-.4.97-1.2,1.92-3.54,3.42-4.15,1.95-.8,4.1.31,5.76,1.3,1.54.92,4.12,2.05,4.53,3.96.2.92.02,1.89-.34,2.76Z"/>
        <path class="cls-1" d="M65.45,0C29.36,0,0,29.36,0,65.45s29.36,65.45,65.45,65.45,65.45-29.36,65.45-65.45S101.54,0,65.45,0ZM68.54,101.88c-6.5,0-12.9-1.61-18.61-4.66l-16.54,4.54c-.3.08-.61.12-.91.12-1,0-1.96-.43-2.63-1.21-.87-1.02-1.07-2.45-.52-3.67l6-13.22c-4.14-6.39-6.31-13.75-6.31-21.42,0-21.79,17.73-39.52,39.52-39.52s39.52,17.73,39.52,39.52-17.73,39.52-39.52,39.52Z"/>
      </g>
    </g>
  </g>
</svg>