<?xml version="1.0" encoding="UTF-8"?>
<svg xmlns="http://www.w3.org/2000/svg" version="1.1" viewBox="0 0 130.9 130.9">
  <defs>
    <style>
      .cls-1 {
        fill: none;
      }

      .cls-2 {
        fill: #1b75bb;
      }
    </style>
  </defs>
  <!-- Generator: Adobe Illustrator 28.7.1, SVG Export Plug-In . SVG Version: 1.2.0 Build 142)  -->
  <g>
    <g id="Layer_1">
      <g>
        <path class="cls-1" d="M82.62,26.22h-13.3c-7.8,0-14.13,6.33-14.13,14.13v11.2h-7.04c-.55,0-.99.44-.99.99v11.62c0,.55.44.99.99.99h7.04v38.55c0,.55.44.99.99.99h14.09c.55,0,.99-.44.99-.99v-38.55h10.21c.51,0,.94-.39.98-.9l.98-11.62c.05-.58-.41-1.07-.98-1.07h-11.19v-8.24c0-1.93,1.57-3.5,3.5-3.5h7.87c.55,0,.99-.44.99-.99v-11.62c0-.55-.44-.99-.99-.99Z"/>
        <path class="cls-2" d="M65.45,0C29.36,0,0,29.36,0,65.45s29.36,65.45,65.45,65.45,65.45-29.36,65.45-65.45S101.54,0,65.45,0ZM83.61,38.82c0,.55-.44.99-.99.99h-7.87c-1.93,0-3.5,1.57-3.5,3.5v8.24h11.19c.58,0,1.03.49.98,1.07l-.98,11.62c-.04.51-.47.9-.98.9h-10.21v38.55c0,.55-.44.99-.99.99h-14.09c-.55,0-.99-.44-.99-.99v-38.55h-7.04c-.55,0-.99-.44-.99-.99v-11.62c0-.55.44-.99.99-.99h7.04v-11.2c0-7.8,6.33-14.13,14.13-14.13h13.3c.55,0,.99.44.99.99v11.62Z"/>
      </g>
    </g>
  </g>
</svg>