<?xml version="1.0" encoding="UTF-8"?>
<svg xmlns="http://www.w3.org/2000/svg" version="1.1" viewBox="0 0 130.9 130.9">
  <defs>
    <style>
      .cls-1 {
        fill: #1b75bb;
      }
    </style>
  </defs>
  <!-- Generator: Adobe Illustrator 28.7.1, SVG Export Plug-In . SVG Version: 1.2.0 Build 142)  -->
  <g>
    <g id="Layer_1">
      <g>
        <path class="cls-1" d="M74.26,65.24c-1.96.02-3.61,1.67-3.63,3.64-.02,1.99,1.65,3.66,3.66,3.66,2.03,0,3.64-1.62,3.63-3.66,0-2.02-1.66-3.66-3.66-3.64Z"/>
        <path class="cls-1" d="M42.82,42.38c-2.49,0-4.54,2.04-4.55,4.55,0,2.51,1.99,4.55,4.5,4.59,2.47.04,4.57-2.02,4.59-4.51.02-2.55-2.02-4.62-4.54-4.63Z"/>
        <path class="cls-1" d="M64.6,51.52c2.46.02,4.56-2.06,4.58-4.53.02-2.5-2.08-4.61-4.59-4.6-2.48,0-4.53,2.07-4.53,4.57,0,2.49,2.03,4.54,4.54,4.56Z"/>
        <path class="cls-1" d="M91.66,65.24c-1.99.02-3.67,1.71-3.64,3.69.03,1.97,1.67,3.6,3.64,3.6,2.02,0,3.66-1.62,3.66-3.64,0-2.02-1.66-3.67-3.66-3.66Z"/>
        <path class="cls-1" d="M65.45,0C29.36,0,0,29.36,0,65.45s29.36,65.45,65.45,65.45,65.45-29.36,65.45-65.45S101.54,0,65.45,0ZM51.28,83.16c-2.9-.18-5.75-.7-8.53-1.57-.71-.22-1.29.02-1.86.4-3.15,2.15-6.29,4.29-9.44,6.44-.2.14-.4.27-.73.5.14-.43.22-.73.32-1.02,1.07-3.06,2.12-6.13,3.21-9.18.21-.57.14-.92-.35-1.31-2.24-1.8-4.46-3.63-6.29-5.88-7.47-9.19-7.38-21.22.24-30.54,4.44-5.43,10.24-8.64,16.96-10.3,11.13-2.75,21.37-.79,30.54,6.12,4.83,3.64,7.93,8.53,9.44,14.39.04.16.06.33.13.74-1.64,0-3.16-.08-4.67.01-8.23.54-15.29,3.64-20.82,9.85-3.81,4.28-5.63,9.36-5.45,15.08.06,1.82.56,3.63.86,5.44.04.26.13.52.21.83-1.3,0-2.54.07-3.77-.01ZM98.96,95c1.02,1.85,2.06,3.69,3.09,5.54.13.23.25.47.37.71-.04.05-.07.1-.11.15-1.09-.47-2.19-.95-3.28-1.42-1.92-.83-3.81-1.71-5.75-2.48-.53-.21-1.22-.27-1.77-.13-3.63.87-7.28,1.51-11.02,1.2-8.17-.68-15.29-3.52-20.41-10.27-6.26-8.24-5.59-18.76,1.63-26.19,4.52-4.65,10.05-7.18,16.42-8.05,7.62-1.05,14.67.46,21.06,4.78,4.52,3.06,7.7,7.15,9,12.51,2.02,8.34-.77,15.1-7.03,20.64-.59.52-1.22.99-1.84,1.47-.7.53-.77.77-.35,1.54Z"/>
      </g>
    </g>
  </g>
</svg>