<?xml version="1.0" encoding="UTF-8"?>
<svg xmlns="http://www.w3.org/2000/svg" version="1.1" viewBox="0 0 32 32">
  <defs>
    <style>
      .cls-1 {
        fill: #1b75bb;
      }
    </style>
  </defs>
  <!-- Generator: Adobe Illustrator 28.7.1, SVG Export Plug-In . SVG Version: 1.2.0 Build 142)  -->
  <g>
    <g id="Layer_1">
      <path class="cls-1" d="M15.98,0c4.42,0,8.42,1.78,11.33,4.67,2.89,2.91,4.69,6.9,4.69,11.32s-1.8,8.42-4.69,11.33c-2.9,2.88-6.9,4.68-11.33,4.68s-8.41-1.8-11.31-4.68C1.77,24.42,0,20.41,0,15.99S1.77,7.59,4.67,4.67C7.58,1.78,11.58,0,15.98,0h0ZM15.26,29.52h0v-5.17c-1.45.06-2.86.35-4.16.86-.18.06-.38.12-.55.21.11.23.23.46.36.67.8,1.47,1.77,2.6,2.85,3.28.51.07.99.13,1.5.16h0ZM25.57,6.42h0c-.11-.11-.23-.23-.34-.32-.59.44-1.22.84-1.89,1.19.88,2.29,1.42,5.02,1.5,7.97h4.68c-.17-3.44-1.66-6.55-3.95-8.83h0ZM24.07,5.12h0c-.84-.63-1.77-1.15-2.74-1.57.37.49.73,1.05,1.07,1.64.13.25.26.51.38.75.45-.24.87-.52,1.29-.82h0ZM18.23,2.64h0c-.49-.09-.99-.14-1.49-.18v5.19c1.45-.07,2.84-.37,4.14-.86.18-.07.38-.14.55-.22-.1-.23-.23-.45-.34-.67-.8-1.47-1.79-2.6-2.87-3.27h0ZM15.26,2.46h0c-.52.04-1,.09-1.5.18-1.07.66-2.04,1.8-2.85,3.27-.13.22-.24.45-.36.67.17.08.37.15.55.22,1.3.49,2.71.79,4.16.86V2.46h0ZM10.68,3.55h0c-.99.42-1.91.94-2.76,1.57.42.3.86.58,1.31.82.12-.24.24-.51.37-.75.33-.59.69-1.15,1.08-1.64h0ZM6.75,6.1h0c-.11.1-.23.21-.34.32-2.29,2.28-3.76,5.39-3.93,8.83h4.65c.08-2.95.63-5.68,1.5-7.97-.66-.35-1.29-.75-1.88-1.19h0ZM2.48,16.73h0c.17,3.45,1.64,6.55,3.93,8.84l.34.32c.59-.44,1.22-.84,1.88-1.2-.87-2.27-1.42-5.02-1.5-7.97H2.48ZM7.92,26.88h0c.86.63,1.77,1.15,2.76,1.57-.39-.5-.75-1.06-1.08-1.66-.13-.24-.24-.49-.37-.74-.45.25-.89.52-1.31.83h0ZM16.74,29.52h0c.5-.03,1-.09,1.49-.16,1.07-.68,2.06-1.81,2.87-3.28.11-.21.24-.45.34-.67-.17-.09-.37-.15-.55-.21-1.3-.51-2.69-.79-4.14-.86v5.17h0ZM21.32,28.45h0c.97-.42,1.91-.94,2.74-1.57-.42-.31-.84-.58-1.29-.83-.12.25-.25.51-.38.74-.34.6-.7,1.16-1.07,1.66h0ZM25.23,25.89h0l.34-.32c2.29-2.29,3.78-5.39,3.95-8.84h-4.68c-.08,2.95-.62,5.7-1.5,7.97.66.36,1.29.76,1.89,1.2h0ZM22.02,7.93h0c-.21.09-.41.17-.62.24-1.47.55-3.03.88-4.66.95v6.12h6.62c-.08-2.73-.56-5.22-1.35-7.32h0ZM15.26,9.13h0c-1.62-.07-3.21-.4-4.67-.95-.21-.08-.42-.16-.62-.24-.77,2.1-1.27,4.6-1.35,7.32h6.64v-6.12h0ZM15.26,22.86h0v-6.13h-6.64c.08,2.73.58,5.23,1.36,7.32.19-.08.39-.16.6-.24,1.47-.55,3.05-.88,4.67-.95h0ZM16.74,22.86h0c1.62.07,3.19.4,4.66.95.21.08.41.16.62.24.79-2.1,1.27-4.6,1.35-7.32h-6.62v6.13h0Z"/>
    </g>
  </g>
</svg>