<?xml version="1.0" encoding="UTF-8"?>
<svg xmlns="http://www.w3.org/2000/svg" version="1.1" viewBox="0 0 32 31.99">
  <defs>
    <style>
      .cls-1 {
        fill: #1b75bb;
      }
    </style>
  </defs>
  <!-- Generator: Adobe Illustrator 28.7.1, SVG Export Plug-In . SVG Version: 1.2.0 Build 142)  -->
  <g>
    <g id="Layer_1">
      <path class="cls-1" d="M10.92,5.9c-.57.24-1.1.53-1.58.86-.53.34-1,.73-1.42,1.16h0c-.43.44-.81.91-1.16,1.41-.33.49-.62,1.05-.87,1.6-.17.41.02.88.43,1.05.4.19.87-.02,1.04-.42.2-.46.45-.91.72-1.32.28-.43.62-.83.97-1.18h0c.35-.35.75-.67,1.17-.96.41-.29.85-.51,1.31-.7.41-.18.61-.66.43-1.06-.17-.41-.64-.6-1.05-.43h0ZM31.61,29.71h0l-5.77-5.79c.93-1.11,1.69-2.39,2.26-3.74.7-1.73,1.1-3.61,1.1-5.59s-.38-3.78-1.08-5.51l-.02-.08c-.72-1.75-1.79-3.33-3.11-4.67l-.06-.07c-1.34-1.34-2.95-2.43-4.74-3.17h0c-1.7-.71-3.6-1.1-5.56-1.1-4.04,0-7.7,1.63-10.34,4.27-1.32,1.34-2.41,2.95-3.15,4.75-.73,1.71-1.12,3.62-1.12,5.57s.38,3.81,1.07,5.5l.05.09c.74,1.79,1.8,3.41,3.15,4.74h0c1.34,1.33,2.96,2.42,4.73,3.16h.01c1.73.72,3.61,1.11,5.59,1.11s3.86-.39,5.57-1.11c1.36-.56,2.63-1.33,3.75-2.24l5.8,5.77c.51.51,1.37.51,1.88,0,.51-.51.51-1.37,0-1.88h0ZM23.04,23.02h0l-.02.02c-1.11,1.09-2.41,1.97-3.86,2.57-1.39.58-2.93.91-4.55.91s-3.16-.32-4.57-.89v-.02c-1.46-.6-2.78-1.48-3.86-2.59h-.02.02c-1.1-1.11-2.01-2.42-2.6-3.86l-.04-.07c-.56-1.39-.87-2.9-.87-4.5s.33-3.18.91-4.56c.59-1.44,1.47-2.75,2.6-3.86,2.14-2.15,5.12-3.48,8.43-3.48,1.62,0,3.16.32,4.56.89h-.02c1.46.61,2.78,1.48,3.88,2.59l.06.08c1.06,1.06,1.93,2.37,2.53,3.79l.03.08c.56,1.39.87,2.89.87,4.49s-.32,3.17-.89,4.57c-.6,1.46-1.49,2.76-2.59,3.86h0ZM23.24,13.79h0c-.44,0-.81.36-.81.8,0,1.03-.2,2.05-.59,3.01l-.02.04c-.37.91-.94,1.75-1.68,2.51-.74.74-1.62,1.31-2.53,1.7-.95.39-1.99.6-3.01.6-.46,0-.81.34-.81.79s.35.81.81.81c1.22,0,2.44-.23,3.61-.72,1.11-.46,2.16-1.14,3.06-2.05.89-.88,1.58-1.92,2.04-3.03l.02-.03c.47-1.16.71-2.39.71-3.62,0-.44-.34-.8-.8-.8h0Z"/>
    </g>
  </g>
</svg>