<?xml version="1.0" encoding="UTF-8"?>
<svg xmlns="http://www.w3.org/2000/svg" version="1.1" viewBox="0 0 174.63 58.53">
  <defs>
    <style>
      .cls-1 {
        fill: none;
      }

      .cls-2 {
        fill: #1b75bb;
      }

      .cls-3 {
        fill: #231f20;
      }

      .cls-4 {
        fill: #231f20;
      }

      .cls-5 {
        fill: #be1e2d;
      }

      .cls-6 {
        fill: #fff;
      }

      .cls-7 {
        fill: #c3996b;
      }

      .cls-8 {
        fill: #ec1c24;
      }
    </style>
  </defs>
  <!-- Generator: Adobe Illustrator 28.7.1, SVG Export Plug-In . SVG Version: 1.2.0 Build 142)  -->
  <g>
    <g id="Layer_1">
      <g>
        <path class="cls-3" d="M62.81,30.8c-3.68-2.69-8.25-2.65-12.14-4.77-1.72-.94-3.39-2.37-4.05-4.15-.7-1.87-.08-3.63.52-5.24.54-1.45,1.15-2.96.96-4.63-.15-1.3-.79-2.56-1.71-3.65-2.29-2.71-5.89-4.39-9.08-5.7-.41-.17-.83-.33-1.24-.49C23.83-2.38,11.5.37,4.58,9c-3.54,4.42-7.44,11-1.56,16.74,2.39,2.34,5.43,3.93,7.88,6.2,1.34,1.24,2.43,2.67,3.02,4.31.61,1.71.69,3.46.71,5.17.02,3.2-.08,6.32,1.39,9.52,1.35,2.93,3.8,5.57,7.01,6.73,3.02,1.1,6.25.79,8.2-1.22,1.15-1.19,1.82-2.72,2.68-4.11.93-1.5,2.17-2.7,3.76-3.58,6.14-3.39,14.35-1.8,21.08-3.88,3.15-.98,6.18-2.89,7.11-6.04.82-2.79-.25-6.01-3.04-8.05Z"/>
        <g>
          <path class="cls-7" d="M21.62,32.92c1.19-.11,2.11-.65,2.72-1.62,1.62-2.56.78-7.4-.21-9.19-.19-.34-.38-.53-.57-.56-.25-.04-.54.19-.81.43-.27.24-.51.38-.67.46-.05.75-.17,1.68-.41,2.84-.69,3.36-1.21,6.17-.05,7.63Z"/>
          <path class="cls-6" d="M35.33,35.99c-.53-.46-.76-1.15-.85-1.74-1.14,1.2-2.73,2.29-4.73,3.23-.64.3-1.14.64-1.54,1,1.03,1.16,3.66,2.13,3.66,2.13-.83.4-1.41,1.07.54,1.29,1.95.22,2.81-.96,4.09-2.65,1.28-1.69-.09-2.31-1.18-3.24Z"/>
          <path class="cls-7" d="M19.37,15.84s.39,1.99-.73,2.24c-.37-.41-.67-1.26-.53-1.7.11-.34.41-.73,1.26-.54Z"/>
          <path class="cls-6" d="M21.57,15.44c0,.15-.14.25-.28.25s-.3-.11-.3-.25.15-.39.29-.39.29.25.29.4Z"/>
          <path class="cls-6" d="M41.01,27.94c-.2-.11-.45-.08-.61.09l-.44.44c-.17.17-.2.42-.09.62.02.04.05.08.09.12l9.63,9.63s.08.07.12.09c.2.11.45.08.62-.09l.44-.44c.17-.17.2-.42.09-.62-.02-.04-.05-.08-.09-.12l-9.63-9.63s-.08-.07-.12-.09Z"/>
          <path class="cls-1" d="M21.37,14.36c-.35,0-.56.55-.56,1.01s.41.66.76.66.63-.28.63-.74-.47-.92-.82-.92Z"/>
          <path class="cls-6" d="M35.15,29.91l-.9-.9c-.27-.27-.27-.71-.01-.98,0,0,0,0,.01-.01l.02-.02c-1.05-1.7-3.01-2.15-3.01-2.15,1.51.29,2.62.89,3.38,1.84.02,0,.03-.02.05-.02l.13-.05.08.11c.41.55.75.75.8.77l.14.04c.12.04.26.08.39.12h.05s.06.07.06.07c.05.05.09.11.12.17.01,0,.02,0,.04,0,.58.1,1-.05,1.3-1,.65-2.09-.27-4.24-2.71-6.4-.72-.64-1.42-1.14-2.06-1.54-.17-.26-.33-.52-.49-.77-.51-.84-.92-1.64-1.07-2.46-.67-3.62-2.45-6.19-5.1-6.61,0-.05,0-.1,0-.15,0-.81-.64-1.16-1.44-1.16s-1.43.35-1.43,1.16c0,.14.02.29.06.44-.25.08-.51.18-.78.3-4.15,1.83-2.88,4.65-2.88,4.65,0,0-.16.15-.36.39,0,0,.26,1.53-.25,2.12-.11.14-.41.35-.58.37.62,1.25,1.89,1.86,3.23,2,.09.34.17.86.16,1.62.09-.06.2-.14.31-.24.29-.26.72-.64,1.23-.55.35.06.65.33.92.81,1,1.81,2,6.88.19,9.7-.85,1.32-2.14,1.53-3.02,1.5.26.28.59.5,1.01.65-.52.65-.95,1.62-1.16,3.06-.36,2.56-.94,2.34-.94,2.34-.69.29-1.07.68-.86,1.08.49.93,3.01,1.95,4.07,1.95,2.99,0,2-3.14,5.76-4.9,4.11-1.93,6.01-4.23,6.63-6.6l-.54-.54c-.21.02-.42-.05-.57-.2ZM21.56,16.03c-.35,0-.76-.2-.76-.66s.22-1.01.56-1.01.82.46.82.92-.28.74-.63.74ZM25.51,10.88c-.18.11-.81-.23-.97-.31-.16-.08-.37-.1-.47,0-.1.11-.15,0-.15,0-.07-.17-.11-.34-.11-.51,0-.56.45-.81.99-.81s.99.24.99.81c0,.28-.05.67-.28.82Z"/>
          <path class="cls-2" d="M51.05,37.57l.53-.53c-.23-.4-.18-.92.16-1.27.19-.19.45-.3.7-.3-.04-.18-.13-.35-.27-.49l-8.37-8.37c-.41-.41-1.06-.41-1.47,0l-1.12,1.12s.08.05.12.09l9.63,9.63s.06.08.09.12Z"/>
          <path class="cls-6" d="M48.27,40.73c.34.34.34.88,0,1.22-.34.34-.89.34-1.22,0-.34-.34-.34-.89,0-1.22.34-.34.89-.34,1.22,0Z"/>
          <path class="cls-6" d="M53.09,35.9c.34.34.34.88,0,1.22-.34.34-.88.34-1.22,0-.34-.34-.34-.89,0-1.22.34-.34.89-.34,1.22,0Z"/>
          <g>
            <path class="cls-2" d="M37.98,30.99l-1.51-1.51s0-.05,0-.08c-.03,0-.07-.01-.1-.02l-.03-.03c.05-.17,0-.37-.13-.51l-.02-.02c-.12-.03-.26-.07-.39-.12l-.14-.04c-.11-.03-.48-.28-.89-.83-.07.03-.13.06-.18.12l-.2.2s0,0,0,0c-.2.2-.2.53,0,.73l.9.9c.14.14.33.18.51.13l.53.53,1.32,1.32c0-.17.03-.33.08-.46.05-.13.14-.24.27-.31Z"/>
            <path class="cls-2" d="M49.38,39.03l-9.63-9.63s-.07-.08-.09-.12l-1.59,1.59.04.04s.06-.02.09-.03h.02c.11-.02.22-.04.33-.04.58,0,1.06.29,1.52.58.44.27.86.53,1.35.53.09,0,.17,0,.26-.02.03,0,.06-.01.09-.01.1,0,.15.05.17.08.04.05.04.12.02.18l-.23.65c-.04.1-.15.2-.25.24h-.01c-.17.06-.34.09-.53.09h0c-.44,0-.84-.16-1.22-.32-.37-.15-.73-.29-1.11-.29-.15,0-.28.02-.42.07-.04.01-.08.02-.12.02-.1,0-.27-.04-.36-.34-.03-.1-.05-.21-.07-.31l-.18-.19c-.04.31.06.63.3.86l8.37,8.37c.14.14.31.23.49.27,0-.26.11-.51.3-.7.34-.34.87-.4,1.27-.16l1.32-1.32s-.08-.05-.12-.09Z"/>
          </g>
          <path class="cls-6" d="M41.82,32.13s-.03-.06-.1-.04c-1.34.25-2.13-1.3-3.46-1.05-.03,0-.29.07-.39.32-.07.19-.11.51,0,.89.09.29.25.23.28.22,1.2-.38,2.09.84,3.29.46.07-.03.14-.1.16-.15.08-.22.15-.43.23-.65Z"/>
          <path class="cls-6" d="M19.62,25.69c-.51.28-1.08.54-1.55.83.17.73.3,1.3.32,1.41.08.34-.14.51-.33.46-.15-.05-.76-.23-.98-.29.02.06.05.12.09.18.93,1.51,1.82,1.35,2.58,1.3.34-.02.66-.06.96-.11.1-1.19.37-2.6.7-4.22.07-.32.12-.63.17-.93-.48.42-1.12.91-1.98,1.37Z"/>
          <polygon class="cls-6" points="16.24 21.22 15.11 22.28 16.54 22.45 16.24 21.22"/>
          <path class="cls-6" d="M18.06,28.19c-.1-.03-.92-.27-.92-.27l-2.2-5.47,2.07.24s1.2,5.28,1.22,5.36c.02.08-.08.16-.17.14Z"/>
        </g>
        <g>
          <path class="cls-2" d="M57.06,2.81h4.85v14.35h8.17v4.15h-13.02V2.81Z"/>
          <path class="cls-2" d="M84.89,17.71h-7.24l-1.35,3.59h-4.94l7.56-18.5h4.77l7.59,18.5h-5.04l-1.35-3.59ZM83.47,13.86l-2.2-5.92-2.2,5.92h4.41Z"/>
          <path class="cls-2" d="M109.44,11.62h4.48v8.01c-2.07,1.6-4.91,2.46-7.52,2.46-5.71,0-9.88-4.17-9.88-10.06s4.17-10.06,9.98-10.06c3.35,0,6.07,1.24,7.83,3.54l-3.22,3.15c-1.23-1.46-2.64-2.16-4.35-2.16-3.07,0-5.12,2.18-5.12,5.53s2.05,5.53,5.07,5.53c.95,0,1.84-.19,2.74-.64v-5.31Z"/>
          <g>
            <path class="cls-2" d="M76.73,29.79h-5.12v-4.03h14.92v4.03h-5.09v13.95h-4.71v-13.95Z"/>
            <path class="cls-2" d="M96.17,38.96h-2.57v4.78h-4.71v-17.98h7.62c4.55,0,7.4,2.54,7.4,6.65,0,2.65-1.19,4.6-3.26,5.68l3.59,5.65h-5.05l-3.02-4.78ZM96.22,29.76h-2.62v5.27h2.62c1.95,0,2.93-.98,2.93-2.62s-.98-2.65-2.93-2.65Z"/>
            <path class="cls-2" d="M118.26,40.24h-7.04l-1.31,3.49h-4.81l7.35-17.98h4.64l7.38,17.98h-4.9l-1.31-3.49ZM116.88,36.49l-2.14-5.76-2.14,5.76h4.28Z"/>
            <path class="cls-2" d="M158.69,39.81v3.93h-13.38v-17.98h13.07v3.93h-8.4v3.03h7.4v3.8h-7.4v3.29h8.71Z"/>
            <path class="cls-2" d="M161.9,25.75h4.71v13.95h7.95v4.03h-12.66v-17.98Z"/>
          </g>
          <g>
            <path class="cls-2" d="M144.22,24.79c-1.08,1.9-2.41,3.65-3.63,5.47-2.94,4.34-5.88,8.68-8.83,13.02-.08.12-.17.24-.28.39h0s5.39.01,5.39.01l8.04-20.26c-.21.46-.44.92-.7,1.37Z"/>
            <path class="cls-3" d="M131.42,20.95c3.03-.02,5.49-2.53,5.47-5.59-.02-3.06-2.53-5.54-5.56-5.5-3.02.04-5.46,2.54-5.45,5.56.02,3.06,2.51,5.54,5.54,5.52ZM131.39,11.45c2.18,0,3.92,1.75,3.93,3.94.01,2.17-1.74,3.96-3.9,3.98-2.17.01-3.95-1.77-3.96-3.97,0-2.17,1.77-3.95,3.93-3.95Z"/>
            <path class="cls-5" d="M140.58,30.25c1.22-1.81,2.55-3.57,3.63-5.47.26-.45.49-.91.7-1.37,1.73-3.77,1.88-7.77.76-11.85-1.52-5.56-5.11-9.14-10.64-10.7-.91-.26-1.87-.34-2.8-.5-.74,0-1.48.01-2.21.02-.41.06-.82.12-1.22.19-4.67.86-8.28,3.28-10.59,7.48-1.76,3.19-2.3,6.66-1.95,10.26.26,2.68,1.07,5.2,2.63,7.42,4.08,5.85,8.19,11.69,12.29,17.54.08.12.18.24.29.39,0,0,0,0,0-.01.11-.15.2-.27.28-.39,2.94-4.34,5.88-8.68,8.83-13.02ZM131.45,40.9c-.12-.17-.22-.29-.31-.41-3.64-5.2-7.3-10.4-10.93-15.61-1.85-2.66-2.57-5.69-2.49-8.9.07-3.13.88-6.06,2.76-8.59,2.36-3.19,5.56-5.02,9.51-5.35,5.07-.42,9.21,1.42,12.19,5.58,2.05,2.86,2.76,6.16,2.6,9.65-.14,3.06-1.16,5.79-2.91,8.3-3.43,4.94-6.77,9.94-10.14,14.92-.08.11-.16.23-.28.4Z"/>
            <path class="cls-8" d="M144.78,17.28c.16-3.49-.55-6.79-2.6-9.65-2.99-4.16-7.13-6-12.19-5.58-3.95.33-7.15,2.15-9.51,5.35-1.88,2.54-2.68,5.47-2.76,8.59-.08,3.21.64,6.23,2.49,8.9,3.63,5.21,7.29,10.41,10.93,15.61.09.12.18.24.31.41.12-.17.2-.28.28-.4,3.37-4.98,6.71-9.98,10.14-14.92,1.75-2.52,2.77-5.25,2.91-8.3ZM131.33,9.87c3.03-.04,5.53,2.44,5.56,5.5.02,3.06-2.44,5.57-5.47,5.59-3.03.02-5.52-2.46-5.54-5.52-.02-3.03,2.43-5.53,5.45-5.56Z"/>
            <path class="cls-6" d="M131.42,19.37c2.16-.02,3.91-1.8,3.9-3.98,0-2.19-1.75-3.93-3.93-3.94-2.16,0-3.93,1.78-3.93,3.95,0,2.2,1.78,3.99,3.96,3.97Z"/>
          </g>
        </g>
        <g>
          <path class="cls-4" d="M61.81,53.91c-.04.8-.27,1.41-.68,1.84-.41.43-.99.64-1.73.64s-1.35-.29-1.79-.85c-.44-.57-.66-1.34-.66-2.32v-1.36c0-.97.23-1.74.68-2.31.45-.56,1.07-.85,1.86-.85.72,0,1.28.22,1.68.65.4.43.61,1.05.64,1.85h-.95c-.04-.61-.17-1.04-.39-1.3-.22-.26-.54-.39-.99-.39-.51,0-.9.2-1.18.6-.27.4-.41.98-.41,1.75v1.37c0,.76.13,1.34.38,1.74.25.4.63.61,1.12.61s.84-.12,1.06-.36c.22-.24.35-.68.4-1.31h.95Z"/>
          <path class="cls-4" d="M65.49,51.58c-.13-.02-.26-.04-.41-.04-.47,0-.79.26-.98.77v3.97h-.91v-5.56h.88l.02.56c.24-.44.59-.67,1.03-.67.14,0,.26.02.36.07v.88Z"/>
          <path class="cls-4" d="M69.29,56.28c-.05-.12-.09-.32-.12-.61-.32.47-.73.71-1.23.71s-.9-.14-1.18-.42-.42-.68-.42-1.19c0-.56.19-1.01.57-1.35.38-.33.91-.5,1.58-.51h.67v-.59c0-.33-.07-.57-.22-.71-.15-.14-.37-.21-.67-.21-.27,0-.5.08-.67.24-.17.16-.26.37-.26.62h-.91c0-.28.08-.56.25-.81.17-.26.39-.46.68-.61.28-.15.6-.22.95-.22.57,0,1,.14,1.3.42.3.28.45.69.45,1.23v2.8c0,.43.06.8.17,1.11v.08h-.94ZM68.08,55.56c.22,0,.43-.06.64-.18.2-.12.35-.28.44-.46v-1.32h-.51c-.43,0-.77.1-1.02.29-.25.19-.37.45-.37.78,0,.31.06.54.19.69.13.14.34.21.64.21Z"/>
          <path class="cls-4" d="M72.11,56.28v-4.82h-.72v-.73h.72v-.64c.01-.56.15-1.01.43-1.32s.66-.47,1.17-.47c.18,0,.36.03.55.09l-.05.77c-.13-.03-.27-.05-.42-.05-.52,0-.78.37-.78,1.11v.53h.95v.73h-.95v4.82h-.91Z"/>
          <path class="cls-4" d="M76.47,49.38v1.35h.84v.73h-.84v3.45c0,.22.04.39.11.5.07.11.2.17.37.17.12,0,.24-.02.36-.06v.77c-.22.07-.43.1-.64.1-.36,0-.63-.13-.82-.39-.19-.26-.28-.62-.28-1.09v-3.45h-.85v-.73h.85v-1.35h.9Z"/>
          <path class="cls-4" d="M79.68,49.26c0,.15-.04.28-.13.39s-.22.15-.39.15-.3-.05-.39-.15-.13-.23-.13-.39.04-.28.13-.39c.09-.11.21-.16.39-.16s.3.05.39.16c.09.11.13.24.13.39ZM79.6,56.28h-.91v-5.56h.91v5.56Z"/>
          <path class="cls-4" d="M82.13,50.73l.03.6c.35-.47.8-.7,1.35-.7.98,0,1.48.66,1.49,1.97v3.69h-.9v-3.65c0-.43-.07-.74-.22-.93-.15-.18-.36-.27-.65-.27-.23,0-.43.08-.61.23s-.32.35-.43.59v4.04h-.91v-5.56h.86Z"/>
          <path class="cls-4" d="M86.42,53.26c0-.87.16-1.52.47-1.96.31-.44.78-.66,1.38-.66.56,0,.99.24,1.29.72l.05-.62h.82v5.61c0,.69-.18,1.22-.53,1.58-.35.37-.84.55-1.47.55-.27,0-.58-.07-.92-.2-.34-.14-.6-.3-.77-.5l.37-.63c.38.37.79.55,1.25.55.76,0,1.14-.41,1.17-1.24v-.72c-.29.43-.71.65-1.25.65-.57,0-1.02-.22-1.35-.65-.32-.43-.49-1.05-.5-1.87v-.62ZM87.33,53.77c0,.62.09,1.08.27,1.37.18.29.48.44.9.44.45,0,.79-.23,1.02-.69v-2.77c-.24-.45-.57-.68-1.01-.68s-.72.15-.9.44-.28.74-.28,1.35v.55Z"/>
          <path class="cls-4" d="M96.01,48.81l1.95,6.1,1.95-6.1h1.21v7.48h-.94v-2.91l.09-2.92-1.96,5.83h-.72l-1.95-5.81.09,2.9v2.91h-.94v-7.48h1.21Z"/>
          <path class="cls-4" d="M105.72,56.28c-.05-.12-.09-.32-.12-.61-.32.47-.73.71-1.23.71s-.9-.14-1.18-.42-.42-.68-.42-1.19c0-.56.19-1.01.58-1.35.38-.33.91-.5,1.58-.51h.67v-.59c0-.33-.07-.57-.22-.71-.15-.14-.37-.21-.67-.21-.27,0-.5.08-.67.24s-.26.37-.26.62h-.91c0-.28.08-.56.25-.81.17-.26.39-.46.68-.61.28-.15.6-.22.95-.22.57,0,1,.14,1.3.42.3.28.45.69.45,1.23v2.8c0,.43.06.8.17,1.11v.08h-.94ZM104.51,55.56c.22,0,.43-.06.64-.18.2-.12.35-.28.44-.46v-1.32h-.51c-.43,0-.77.1-1.02.29s-.37.45-.37.78c0,.31.06.54.19.69.13.14.34.21.64.21Z"/>
          <path class="cls-4" d="M109.12,56.28h-.91v-7.89h.91v7.89Z"/>
          <path class="cls-4" d="M113.65,56.28c-.05-.12-.09-.32-.12-.61-.32.47-.73.71-1.23.71s-.9-.14-1.18-.42-.42-.68-.42-1.19c0-.56.19-1.01.58-1.35.38-.33.91-.5,1.58-.51h.67v-.59c0-.33-.07-.57-.22-.71-.15-.14-.37-.21-.67-.21-.27,0-.5.08-.67.24s-.26.37-.26.62h-.91c0-.28.08-.56.25-.81.17-.26.39-.46.68-.61.28-.15.6-.22.95-.22.57,0,1,.14,1.3.42.3.28.45.69.45,1.23v2.8c0,.43.06.8.17,1.11v.08h-.94ZM112.44,55.56c.22,0,.43-.06.64-.18.2-.12.35-.28.44-.46v-1.32h-.51c-.43,0-.77.1-1.02.29s-.37.45-.37.78c0,.31.06.54.19.69.13.14.34.21.64.21Z"/>
          <path class="cls-4" d="M117.59,54.78l1.01-4.05h.97l-1.82,6.34c-.14.48-.33.84-.58,1.09-.25.25-.53.37-.85.37-.12,0-.28-.03-.47-.08v-.77l.2.02c.26,0,.47-.06.62-.19.15-.12.27-.34.36-.65l.18-.62-1.63-5.51h.99l1.03,4.05Z"/>
          <path class="cls-4" d="M123.39,54.86c0-.2-.07-.36-.22-.5s-.43-.3-.85-.49c-.49-.2-.83-.37-1.03-.52-.2-.14-.35-.31-.45-.49-.1-.18-.15-.4-.15-.65,0-.45.17-.83.5-1.13.33-.3.75-.45,1.27-.45.54,0,.98.16,1.3.47.33.31.49.72.49,1.21h-.9c0-.25-.08-.46-.25-.64-.17-.18-.38-.26-.64-.26s-.48.07-.63.21-.23.32-.23.56c0,.18.06.33.17.45.11.11.38.26.8.45.67.26,1.13.52,1.38.77.24.25.36.57.36.96,0,.48-.17.87-.5,1.16-.33.29-.78.43-1.33.43s-1.05-.17-1.41-.5c-.36-.33-.54-.75-.54-1.26h.91c.01.31.1.55.28.72.18.17.43.26.75.26.3,0,.53-.07.69-.2.16-.14.24-.32.24-.55Z"/>
          <path class="cls-4" d="M126.77,49.26c0,.15-.04.28-.13.39s-.22.15-.39.15-.3-.05-.39-.15c-.09-.1-.13-.23-.13-.39s.04-.28.13-.39c.09-.11.21-.16.39-.16s.3.05.39.16c.09.11.13.24.13.39ZM126.7,56.28h-.91v-5.56h.91v5.56Z"/>
          <path class="cls-4" d="M131.23,56.28c-.05-.12-.09-.32-.12-.61-.32.47-.73.71-1.23.71s-.9-.14-1.18-.42-.42-.68-.42-1.19c0-.56.19-1.01.58-1.35.38-.33.91-.5,1.58-.51h.67v-.59c0-.33-.07-.57-.22-.71-.15-.14-.37-.21-.67-.21-.27,0-.5.08-.67.24s-.26.37-.26.62h-.91c0-.28.08-.56.25-.81.17-.26.39-.46.68-.61.28-.15.6-.22.95-.22.57,0,1,.14,1.3.42.3.28.45.69.45,1.23v2.8c0,.43.06.8.17,1.11v.08h-.94ZM130.02,55.56c.22,0,.43-.06.64-.18.2-.12.35-.28.44-.46v-1.32h-.51c-.43,0-.77.1-1.02.29s-.37.45-.37.78c0,.31.06.54.19.69.13.14.34.21.64.21Z"/>
          <path class="cls-4" d="M139,48.81h.94v5.29c0,.72-.18,1.27-.55,1.68-.36.4-.85.61-1.47.61s-1.13-.19-1.48-.57c-.35-.38-.53-.91-.53-1.59h.94c0,.43.09.76.28,1s.45.36.79.36.59-.13.78-.39c.2-.26.29-.62.29-1.09v-5.29Z"/>
          <path class="cls-4" d="M141.43,53.25c0-.81.2-1.45.59-1.92.39-.47.91-.71,1.55-.71s1.16.23,1.55.69c.39.46.59,1.08.6,1.87v.59c0,.8-.2,1.44-.59,1.91-.39.47-.91.7-1.56.7s-1.16-.23-1.55-.68c-.39-.46-.59-1.07-.6-1.85v-.61ZM142.34,53.77c0,.57.11,1.02.34,1.35.22.33.53.49.91.49.8,0,1.21-.58,1.24-1.74v-.63c0-.57-.11-1.02-.34-1.35-.23-.33-.53-.5-.91-.5s-.67.17-.9.5c-.22.33-.34.78-.34,1.34v.53Z"/>
          <path class="cls-4" d="M149.98,55.8c-.3.39-.74.59-1.32.59-.5,0-.88-.17-1.14-.52-.26-.35-.39-.85-.39-1.52v-3.62h.9v3.55c0,.87.26,1.3.78,1.3.55,0,.93-.25,1.14-.74v-4.11h.91v5.56h-.86l-.02-.49Z"/>
          <path class="cls-4" d="M154.76,51.58c-.13-.02-.26-.04-.41-.04-.47,0-.79.26-.98.77v3.97h-.91v-5.56h.88l.02.56c.24-.44.59-.67,1.03-.67.14,0,.26.02.36.07v.88Z"/>
          <path class="cls-4" d="M156.76,50.73l.03.6c.35-.47.8-.7,1.35-.7.98,0,1.48.66,1.49,1.97v3.69h-.9v-3.65c0-.43-.07-.74-.22-.93-.15-.18-.36-.27-.65-.27-.23,0-.43.08-.61.23s-.32.35-.43.59v4.04h-.91v-5.56h.86Z"/>
          <path class="cls-4" d="M163.22,56.39c-.69,0-1.22-.21-1.59-.62-.37-.41-.56-1.02-.56-1.81v-.67c0-.83.18-1.48.54-1.95.36-.47.87-.71,1.51-.71s1.14.21,1.46.62c.32.41.49,1.06.49,1.94v.6h-3.1v.13c0,.6.11,1.03.34,1.3s.55.41.97.41c.27,0,.5-.05.71-.15.2-.1.39-.26.57-.48l.47.58c-.39.55-.99.83-1.8.83ZM163.12,51.41c-.38,0-.66.13-.84.39-.18.26-.28.66-.31,1.2h2.19v-.12c-.02-.53-.12-.9-.28-1.13-.17-.23-.42-.34-.76-.34Z"/>
          <path class="cls-4" d="M167.92,54.78l1.01-4.05h.97l-1.82,6.34c-.14.48-.33.84-.58,1.09-.25.25-.53.37-.85.37-.12,0-.28-.03-.47-.08v-.77l.2.02c.26,0,.47-.06.62-.19.15-.12.27-.34.36-.65l.18-.62-1.63-5.51h.99l1.03,4.05Z"/>
          <path class="cls-4" d="M173.72,54.86c0-.2-.07-.36-.22-.5s-.43-.3-.85-.49c-.49-.2-.83-.37-1.03-.52-.2-.14-.35-.31-.45-.49-.1-.18-.15-.4-.15-.65,0-.45.17-.83.5-1.13.33-.3.75-.45,1.27-.45.54,0,.98.16,1.3.47.33.31.49.72.49,1.21h-.9c0-.25-.08-.46-.25-.64-.17-.18-.38-.26-.64-.26s-.48.07-.63.21-.23.32-.23.56c0,.18.06.33.17.45.11.11.38.26.8.45.67.26,1.13.52,1.38.77.24.25.36.57.36.96,0,.48-.17.87-.5,1.16-.33.29-.78.43-1.33.43s-1.05-.17-1.41-.5c-.36-.33-.54-.75-.54-1.26h.91c.01.31.1.55.28.72.18.17.43.26.75.26.3,0,.53-.07.69-.2.16-.14.24-.32.24-.55Z"/>
        </g>
      </g>
    </g>
  </g>
</svg>